<?xml version="1.0" encoding="utf-8"?>
<!-- Generator: Adobe Illustrator 23.0.2, SVG Export Plug-In . SVG Version: 6.00 Build 0)  -->
<svg version="1.1" id="Layer_1" xmlns="http://www.w3.org/2000/svg" xmlns:xlink="http://www.w3.org/1999/xlink" x="0px" y="0px"
	 viewBox="0 0 83.9 21.9" style="enable-background:new 0 0 83.9 21.9;" xml:space="preserve">
<title>nelson logo</title>
<path d="M2.6,19.6c6-4.9,12.4-9.4,19-13.4c0.7-0.4,3.9-2.8,4.7-2.7c2.8,0.1,1.1,2.8,0.7,4.3l-3.3,12.3c-0.2,0.8,0.3,1.6,1.1,1.8
	c0.4,0.1,0.8,0,1.1-0.1c2.6-1.4,5.2-3.2,7.9-4.2c3.6-1.3,4.2-0.1,6.6,1.9c2.8,2.4,6.5,2.4,9.9,1.4c2.4-0.7,4.6-2.1,7.1-2.8
	c3.8-1.1,6.1-0.1,9.8,0.8c5.2,1.3,10.6,1,15.7-0.8c1.8-0.6,1-3.5-0.8-2.9c-3.5,1.3-7.3,1.7-11,1.3c-2.9-0.3-5.3-1.7-8.1-2.1
	c-5.3-0.8-9.2,2.7-14.1,3.6c-2.2,0.4-5.1,0.6-6.7-1.3c-0.6-0.6-0.7-1.6-1.3-2.3c-0.7-1-1.8-1.6-3-1.7c-4.2-0.4-9.9,4.3-13.4,6.2
	l2.2,1.7l2.3-8.8C29.6,9.4,31,6.3,31,3.6s-1.8-4-4.4-3.5C22.1,1,16.9,5.5,13.2,8c-4.4,3-8.6,6.1-12.7,9.5
	C-1.1,18.7,1.1,20.8,2.6,19.6L2.6,19.6z"/>
</svg>
